<svg xmlns="http://www.w3.org/2000/svg" width="21.8" height="21.465" viewBox="0 0 21.8 21.465"><defs><style>.a{fill:#fff;}</style></defs><path class="a" d="M9.747,20.7a2.18,2.18,0,1,0,2.18,2.18A2.186,2.186,0,0,0,9.747,20.7ZM3.375,3.6V5.78h2.18l3.924,7.949L7.839,16.4a2.17,2.17,0,0,0,2.077,3.216H22.66v-2.1H10.182a.258.258,0,0,1-.273-.273,1.359,1.359,0,0,1,.116-.273l1.089-1.719h8.12a2.138,2.138,0,0,0,1.908-1.144l3.924-6.75a1.274,1.274,0,0,0,.109-.545,1.048,1.048,0,0,0-1.09-1.036H7.953L6.918,3.6Zm17.1,17.1a2.18,2.18,0,1,0,2.18,2.18A2.186,2.186,0,0,0,20.48,20.7Z" transform="translate(-3.375 -3.6)"/></svg>