<svg xmlns="http://www.w3.org/2000/svg" width="46" height="44.94" viewBox="0 0 46 44.94"><defs><style>.a{fill:#fff;font-size:9px;font-family:Gotham-Medium, Gotham;font-weight:500;}.b{fill:#3d86c6;}</style></defs><g transform="translate(-44 -92.06)"><text class="a" transform="translate(44 136)"><tspan x="0" y="0">INVOICES</tspan></text></g><g transform="translate(-44.739)"><g transform="translate(56.739)"><g transform="translate(0)"><path class="b" d="M77.184,0H63.665a1.361,1.361,0,0,0-.954.389L57.134,5.872a1.316,1.316,0,0,0-.4.938v19.4a1.338,1.338,0,0,0,1.35,1.327h19.1a1.338,1.338,0,0,0,1.35-1.327V1.327A1.338,1.338,0,0,0,77.184,0ZM63.272,3.59V6.424H60.39ZM75.834,24.879h-16.4V9.078h5.183a1.338,1.338,0,0,0,1.35-1.327v-5.1h9.863Z" transform="translate(-56.739)"/><path class="b" d="M168,206.641a1.35,1.35,0,0,0,1.35,1.35h7.692a1.35,1.35,0,1,0,0-2.7h-7.692A1.35,1.35,0,0,0,168,206.641Z" transform="translate(-161.914 -194.272)"/><path class="b" d="M177.039,286.551h-7.692a1.35,1.35,0,1,0,0,2.7h7.692a1.35,1.35,0,0,0,0-2.7Z" transform="translate(-161.913 -271.169)"/><path class="b" d="M177.039,367.812h-7.692a1.35,1.35,0,1,0,0,2.7h7.692a1.35,1.35,0,0,0,0-2.7Z" transform="translate(-161.913 -348.068)"/></g></g></g></svg>