<svg xmlns="http://www.w3.org/2000/svg" width="240" height="14.674" viewBox="0 0 240 14.674"><defs><style>.a,.b{fill:#fff;}.b{fill-rule:evenodd;}</style></defs><g transform="translate(-0.162 32.112)"><path class="a" d="M150.622-18.091a9.494,9.494,0,0,1-3.792.653c-4.661,0-7.494-2.846-7.494-7.168,0-4.68,3.355-7.506,7.843-7.506a8.7,8.7,0,0,1,3.572.632l-.587,2.067a7.341,7.341,0,0,0-2.876-.548c-2.984,0-5.142,1.812-5.142,5.228a4.738,4.738,0,0,0,5.12,5.122,7.716,7.716,0,0,0,2.918-.527l.436,2.046" transform="translate(-74)"/><path class="a" d="M167.43-24.711c0,2.888,1.5,5.207,4.073,5.207,2.592,0,4.052-2.341,4.052-5.312,0-2.677-1.372-5.228-4.052-5.228C168.846-30.045,167.43-27.642,167.43-24.711Zm10.956-.211c0,4.765-2.984,7.484-7.036,7.484-4.14,0-6.753-3.058-6.753-7.232,0-4.363,2.833-7.442,6.972-7.442,4.293,0,6.818,3.143,6.818,7.19" transform="translate(-87.458)"/><path class="a" d="M209.812-23.213c-.087-1.833-.2-4.043-.174-5.981h-.066c-.48,1.748-1.088,3.665-1.743,5.454L205.7-17.59h-2.07l-1.961-6.066c-.566-1.81-1.09-3.747-1.481-5.538h-.044c-.065,1.875-.153,4.129-.262,6.065l-.326,5.707h-2.505l.981-14.193h3.529l1.918,5.706c.521,1.664.98,3.348,1.35,4.928h.065c.392-1.537.894-3.285,1.46-4.948l2.025-5.686h3.487l.849,14.193H210.1l-.284-5.791" transform="translate(-104.743 -0.256)"/><path class="a" d="M246.982-23.213c-.087-1.833-.2-4.043-.174-5.981h-.066c-.479,1.748-1.087,3.665-1.744,5.454l-2.134,6.15h-2.069l-1.962-6.066c-.566-1.81-1.088-3.747-1.481-5.538h-.043c-.067,1.875-.153,4.129-.261,6.065l-.327,5.707h-2.505l.98-14.193h3.53l1.917,5.706c.523,1.664.98,3.348,1.351,4.928h.065c.392-1.537.892-3.285,1.46-4.948l2.025-5.686h3.485l.851,14.193h-2.615l-.283-5.791" transform="translate(-124.517 -0.256)"/><path class="a" d="M274.783-31.616v8.281c0,2.781,1.2,4.066,3.006,4.066,1.939,0,3.094-1.285,3.094-4.066v-8.281h2.68V-23.5c0,4.383-2.332,6.321-5.861,6.321-3.4,0-5.6-1.833-5.6-6.3v-8.133h2.679" transform="translate(-144.594 -0.256)"/><path class="a" d="M302.082-17.422V-31.615h3.05l3.791,6.085a38.621,38.621,0,0,1,2.5,4.76h.045c-.175-1.9-.238-3.728-.238-5.9v-4.948h2.482v14.193h-2.767l-3.833-6.254a46.294,46.294,0,0,1-2.637-4.886l-.065.021c.107,1.832.13,3.706.13,6.043v5.075h-2.462" transform="translate(-160.537 -0.256)"/><path class="a" d="M335.141-17.423h-2.679V-31.616h2.679v14.193" transform="translate(-176.491 -0.256)"/><path class="a" d="M354.041-18.091a9.5,9.5,0,0,1-3.792.653c-4.661,0-7.493-2.846-7.493-7.168,0-4.68,3.355-7.506,7.844-7.506a8.692,8.692,0,0,1,3.57.632l-.588,2.067a7.335,7.335,0,0,0-2.875-.548c-2.985,0-5.143,1.812-5.143,5.228a4.739,4.739,0,0,0,5.122,5.122,7.714,7.714,0,0,0,2.918-.527l.437,2.046" transform="translate(-182.158)"/><path class="a" d="M377.056-23.4,375.9-26.9c-.284-.863-.525-1.832-.741-2.652h-.045c-.218.821-.433,1.809-.7,2.652l-1.131,3.5Zm-4.2,1.959-1.264,4.022h-2.767l4.707-14.194h3.419l4.772,14.194h-2.875l-1.33-4.022h-4.662" transform="translate(-196.056 -0.255)"/><path class="a" d="M397.363-29.447h-4.185v-2.168h11.091v2.168h-4.226v12.024h-2.68V-29.447" transform="translate(-208.959 -0.256)"/><path class="a" d="M422.29-17.423h-2.677V-31.616h2.677v14.193" transform="translate(-224.149 -0.256)"/><path class="a" d="M432.732-24.711c0,2.888,1.5,5.207,4.074,5.207,2.593,0,4.053-2.341,4.053-5.312,0-2.677-1.373-5.228-4.053-5.228C434.149-30.045,432.732-27.642,432.732-24.711Zm10.958-.211c0,4.765-2.985,7.484-7.036,7.484-4.141,0-6.753-3.058-6.753-7.232,0-4.363,2.831-7.442,6.971-7.442,4.291,0,6.818,3.143,6.818,7.19" transform="translate(-229.451)"/><path class="a" d="M463.112-17.422V-31.615h3.051l3.791,6.085a38.7,38.7,0,0,1,2.5,4.76h.045c-.174-1.9-.24-3.728-.24-5.9v-4.948h2.484v14.193h-2.768l-3.833-6.254a46.434,46.434,0,0,1-2.637-4.886l-.066.021c.111,1.832.134,3.706.134,6.043v5.075h-2.465" transform="translate(-246.565 -0.256)"/><path class="a" d="M492.733-20.5a7.588,7.588,0,0,0,3.552.907c1.722,0,2.682-.779,2.682-1.939,0-1.075-.744-1.707-2.617-2.361-2.419-.842-3.964-2.086-3.964-4.132,0-2.318,2-4.09,5.185-4.09a7.962,7.962,0,0,1,3.528.716l-.652,2.088a6.388,6.388,0,0,0-2.919-.674c-1.7,0-2.44.886-2.44,1.708,0,1.1.85,1.6,2.811,2.34,2.548.927,3.791,2.171,3.791,4.216,0,2.276-1.789,4.28-5.578,4.28a8.934,8.934,0,0,1-3.966-.907l.587-2.151" transform="translate(-261.527 -0.001)"/><path class="b" d="M4.354-17.589V-27.64H.162v-4.179H14.419v4.179H10.354v10.051h-6" transform="translate(0 -0.151)"/><path class="b" d="M63.045-17.589V-27.64H58.856v-4.179H73.112v4.179H69.045v10.051h-6" transform="translate(-30.245 -0.151)"/><path class="b" d="M26.768-17.553l5.392-14.23,6.138,0,5.724,14.233H38.24l-2.979-8.6-2.968,8.6H26.768" transform="translate(-13.71 -0.168)"/><path class="b" d="M85.433-17.557l5.389-14.23h6.072l5.792,14.23H96.9l-2.911-8.6-3.037,8.6H85.433" transform="translate(-45.374 -0.168)"/></g></svg>