<svg xmlns="http://www.w3.org/2000/svg" width="24" height="27.531" viewBox="0 0 24 27.531"><defs><style>.a{fill:#3d86c6;}</style></defs><g transform="translate(-46.698 496)"><path class="a" d="M59.1-492.761c-3.971,2.3-5.6,3.261-5.6,3.333a33.323,33.323,0,0,0,3.8,2.224c.05-.011.732-.4,1.525-.876,1.425-.854,2.479-1.464,7.148-4.148,1.342-.771,2.484-1.431,2.54-1.47.083-.055-.161-.216-1.836-1.187C65.617-495.5,64.735-496,64.724-496S62.184-494.542,59.1-492.761Z" transform="translate(-6.425)"/><path class="a" d="M141.153-446.9c-.159.094-1.913,1.048-9.416,5.13-1.454.793-2.666,1.47-2.689,1.5s-.047.987-.047,2.118v2.057l.842.449.836.455.029-2.085.029-2.091,6.15-3.344c3.384-1.841,6.156-3.366,6.162-3.388a10.559,10.559,0,0,0-1.642-.9A.793.793,0,0,0,141.153-446.9Z" transform="translate(-77.738 -46.283)"/><path class="a" d="M189.837-422.811c-.261.161-9.377,5.423-10.608,6.122-.349.2-.421.261-.36.316.039.039,1.015.61,2.168,1.27l2.091,1.2,5.617-3.239c3.959-2.29,5.612-3.272,5.612-3.338a13.741,13.741,0,0,0-2.1-1.309c-1.159-.665-2.107-1.214-2.107-1.214S190-422.911,189.837-422.811Z" transform="translate(-124.012 -68.737)"/><path class="a" d="M46.709-368.767c-.028,1.819,0,12.815.039,12.854s.976.582,2.1,1.237c7.325,4.231,9.033,5.213,9.117,5.218s.089-.51.105-6.521l.011-6.521-2.2-1.275-2.207-1.275-.017,2.434c-.006,1.336-.022,2.434-.028,2.434s-.532-.294-1.153-.654-1.325-.765-1.558-.9l-.433-.244-.011-2.462-.017-2.468-1.8-1.043c-.993-.577-1.836-1.048-1.869-1.048S46.714-368.917,46.709-368.767Z" transform="translate(0 -119.027)"/><path class="a" d="M270.759-368.451c-.516.3-3.039,1.763-5.6,3.239l-4.658,2.69v6.533c0,4.3.017,6.532.055,6.549s2.579-1.442,5.656-3.216l5.6-3.239.017-6.549c.011-5.229,0-6.555-.055-6.555A11.341,11.341,0,0,0,270.759-368.451Z" transform="translate(-201.135 -119.027)"/></g></svg>