<svg xmlns="http://www.w3.org/2000/svg" width="24" height="27.163" viewBox="0 0 24 27.163"><defs><style>.a{fill:#3d86c6;}</style></defs><g transform="translate(-44.128)"><path class="a" d="M91.3,54.751a3.75,3.75,0,0,0,3.728-3.391.4.4,0,0,0,.314-.387,4.015,4.015,0,0,0-4.011-4.011.4.4,0,0,0-.387.314,3.745,3.745,0,0,0,.355,7.474Zm.427-6.974a3.227,3.227,0,0,1,2.8,2.8h-2.8Z" transform="translate(-38.396 -42.977)"/><path class="a" d="M89.648,160.848c0,.327.362.592.808.592H105.1c.446,0,.808-.265.808-.592s-.362-.593-.808-.593H90.456C90.009,160.255,89.648,160.52,89.648,160.848Z" transform="translate(-41.656 -146.652)"/><path class="a" d="M105.1,191.17H90.456c-.446,0-.808.265-.808.593s.362.593.808.593H105.1c.446,0,.808-.265.808-.593S105.545,191.17,105.1,191.17Z" transform="translate(-41.656 -174.943)"/><path class="a" d="M105.1,222.086H90.456c-.446,0-.808.265-.808.592s.362.593.808.593H105.1c.446,0,.808-.265.808-.593S105.545,222.086,105.1,222.086Z" transform="translate(-41.656 -203.234)"/><path class="a" d="M105.1,253H90.456c-.446,0-.808.265-.808.592s.362.593.808.593H105.1c.446,0,.808-.265.808-.593S105.545,253,105.1,253Z" transform="translate(-41.656 -231.525)"/><path class="a" d="M67.976,5.133,61.865.124A.581.581,0,0,0,61.5,0H45.687a1.441,1.441,0,0,0-1.559,1.278V25.885a1.441,1.441,0,0,0,1.559,1.278H66.569a1.441,1.441,0,0,0,1.559-1.278V5.433A.391.391,0,0,0,67.976,5.133ZM65.85,25.3H46.406V1.867H60.857V4.7a1.441,1.441,0,0,0,1.559,1.278H65.85Z" transform="translate(0)"/></g></svg>