<svg xmlns="http://www.w3.org/2000/svg" width="49.961" height="44.023" viewBox="0 0 49.961 44.023"><defs><style>.a,.b{fill:#fff;}.b{fill-rule:evenodd;}</style></defs><path class="a" d="M198.667-95.22v-8.868h-3.574v-3.686h12.158v3.686h-3.467v8.868h-5.118" transform="translate(-195.093 139.227)"/><path class="a" d="M257.46-95.22v-8.868h-3.572v-3.686h12.158v3.686h-3.468v8.868H257.46" transform="translate(-229.628 139.227)"/><path class="a" d="M221.742-95.185l4.6-12.554,5.233,0,4.882,12.556h-4.93l-2.54-7.59-2.531,7.59h-4.713" transform="translate(-210.746 139.208)"/><path class="a" d="M280.513-95.188l4.6-12.554h5.177l4.942,12.554h-4.932l-2.484-7.587-2.588,7.587h-4.71" transform="translate(-245.266 139.208)"/><path class="b" d="M222.572-147.009c-7.41-1.687-12.76-6.381-12.76-11.881a8.5,8.5,0,0,1,.245-2.019c3.611-.98,13.084-2.437,14.817-1.287,1.139.668-1.077,9.686-2.3,15.188" transform="translate(-203.738 171.441)"/><path class="b" d="M278.871-160.91a8.3,8.3,0,0,1,.246,2.021c0,5.51-5.373,10.212-12.8,11.893-1.226-5.5-3.439-14.532-2.3-15.2,1.731-1.149,11.246.306,14.861,1.285" transform="translate(-235.388 171.44)"/><path class="b" d="M230.268-184c8.113.007,15.051,3.463,17.681,8.281-3.028-.471-17.05-3.838-16.894-1.059v17.87c-.268.009-.538.014-.81.014s-.572-.006-.856-.014v-17.87c.156-2.776-13.8.578-16.845,1.056,2.628-4.815,9.565-8.271,17.679-8.278h.045" transform="translate(-205.344 184)"/></svg>