<svg xmlns="http://www.w3.org/2000/svg" width="23.253" height="23.253" viewBox="0 0 23.253 23.253"><defs><style>.a{fill:#fff;}</style></defs><path class="a" d="M11.626.563A11.626,11.626,0,1,0,23.253,12.189,11.624,11.624,0,0,0,11.626.563Zm0,4.5A4.125,4.125,0,1,1,7.5,9.188,4.126,4.126,0,0,1,11.626,5.063Zm0,16.127a8.984,8.984,0,0,1-6.868-3.2,5.227,5.227,0,0,1,4.618-2.8,1.147,1.147,0,0,1,.333.052,6.207,6.207,0,0,0,1.917.323,6.183,6.183,0,0,0,1.917-.323,1.147,1.147,0,0,1,.333-.052,5.227,5.227,0,0,1,4.618,2.8A8.984,8.984,0,0,1,11.626,21.19Z" transform="translate(0 -0.563)"/></svg>