<svg xmlns="http://www.w3.org/2000/svg" width="27.08" height="18.956" viewBox="0 0 27.08 18.956"><defs><style>.a{fill:#3d86c6;}</style></defs><path class="a" d="M4.062,10.374A2.708,2.708,0,1,0,1.354,7.666,2.711,2.711,0,0,0,4.062,10.374Zm18.956,0A2.708,2.708,0,1,0,20.31,7.666,2.711,2.711,0,0,0,23.018,10.374Zm1.354,1.354H21.664a2.7,2.7,0,0,0-1.908.787,6.189,6.189,0,0,1,3.178,4.629h2.793A1.353,1.353,0,0,0,27.08,15.79V14.436A2.711,2.711,0,0,0,24.372,11.728Zm-10.832,0A4.739,4.739,0,1,0,8.8,6.989,4.737,4.737,0,0,0,13.54,11.728Zm3.25,1.354h-.351a6.543,6.543,0,0,1-5.8,0H10.29a4.876,4.876,0,0,0-4.874,4.874v1.219a2.032,2.032,0,0,0,2.031,2.031H19.633a2.032,2.032,0,0,0,2.031-2.031V17.956A4.876,4.876,0,0,0,16.79,13.082Zm-9.465-.567a2.7,2.7,0,0,0-1.908-.787H2.708A2.711,2.711,0,0,0,0,14.436V15.79a1.353,1.353,0,0,0,1.354,1.354H4.142A6.2,6.2,0,0,1,7.324,12.515Z" transform="translate(0 -2.25)"/></svg>